<svg xmlns="http://www.w3.org/2000/svg" xmlns:xlink="http://www.w3.org/1999/xlink" width="714" height="429" viewBox="0 0 714 429"><defs><style>.a,.b{fill:url(#a);}.b{filter:url(#e);}.c{fill:#4487ff;}.d{opacity:0.1;}.d,.g{mix-blend-mode:multiply;isolation:isolate;clip-path:url(#i);}.e,.f{fill:#40067e;}.f{opacity:0.3;}.g{opacity:0.15;}.h{filter:url(#g);}.i{filter:url(#b);}</style><linearGradient id="a" x1="0.765" y1="0.054" x2="0.291" y2="1.1" gradientUnits="objectBoundingBox"><stop offset="0" stop-color="#e3a5ff"/><stop offset="1" stop-color="#7569de"/></linearGradient><filter id="b" x="0" y="0" width="714" height="429" filterUnits="userSpaceOnUse"><feOffset dy="3" input="SourceAlpha"/><feGaussianBlur stdDeviation="3" result="c"/><feFlood flood-color="#3220ce" flood-opacity="0.502"/><feComposite operator="in" in2="c"/><feComposite in="SourceGraphic"/></filter><filter id="e" x="0" y="0" width="714" height="429" filterUnits="userSpaceOnUse"><feOffset dy="3" input="SourceAlpha"/><feGaussianBlur stdDeviation="3" result="f"/><feFlood flood-color="#3220ce" flood-opacity="0.502"/><feComposite operator="in" in2="f"/><feComposite in="SourceGraphic"/></filter><filter id="g" x="0" y="0" width="714" height="429" filterUnits="userSpaceOnUse"><feOffset dy="3" input="SourceAlpha"/><feGaussianBlur stdDeviation="3" result="h"/><feFlood flood-color="#3220ce" flood-opacity="0.502"/><feComposite operator="in" in2="h"/><feComposite in="SourceGraphic"/></filter><clipPath id="i"><g class="i" transform="matrix(1, 0, 0, 1, 0, 0)"><rect class="a" width="696" height="411" rx="20" transform="translate(587 2191)"/></g></clipPath></defs><g transform="translate(-578 -2185)"><g class="h" transform="matrix(1, 0, 0, 1, 578, 2185)"><rect class="c" width="696" height="411" rx="20" transform="translate(9 6)"/></g><g class="d"><path class="e" d="M694.733,2162.067S563.533,2305,871.8,2394.6s424.534,35.2,493.867,240S523,2673,523,2673l-46.934-476.8Z"/><path class="f" d="M694.733,2162.067S553.247,2311.534,871.8,2394.6s706.807-108.69,776.141,96.11S523,2673,523,2673l-46.934-476.8Z" transform="translate(624.897 -95.457) rotate(16)"/></g><g class="g"><path class="f" d="M694.733,2162.067S553.247,2311.534,871.8,2394.6s706.807-108.69,776.141,96.11S523,2673,523,2673l-46.934-476.8Z" transform="translate(624.897 -95.457) rotate(16)"/></g></g></svg>