<svg xmlns="http://www.w3.org/2000/svg" xmlns:xlink="http://www.w3.org/1999/xlink" width="314" height="358" viewBox="0 0 314 358"><defs><style>.a,.b{fill:url(#a);}.b{filter:url(#e);}.c{fill:#4487ff;}.d{opacity:0.1;}.d,.g{mix-blend-mode:multiply;isolation:isolate;clip-path:url(#i);}.e,.f{fill:#40067e;}.f{opacity:0.3;}.g{opacity:0.15;}.h{filter:url(#g);}.i{filter:url(#b);}</style><linearGradient id="a" x1="0.765" y1="0.054" x2="0.291" y2="1.1" gradientUnits="objectBoundingBox"><stop offset="0" stop-color="#e3a5ff"/><stop offset="1" stop-color="#7569de"/></linearGradient><filter id="b" x="0" y="0" width="314" height="356" filterUnits="userSpaceOnUse"><feOffset dy="3" input="SourceAlpha"/><feGaussianBlur stdDeviation="3" result="c"/><feFlood flood-color="#3220ce" flood-opacity="0.502"/><feComposite operator="in" in2="c"/><feComposite in="SourceGraphic"/></filter><filter id="e" x="0" y="0" width="314" height="356" filterUnits="userSpaceOnUse"><feOffset dy="3" input="SourceAlpha"/><feGaussianBlur stdDeviation="3" result="f"/><feFlood flood-color="#3220ce" flood-opacity="0.502"/><feComposite operator="in" in2="f"/><feComposite in="SourceGraphic"/></filter><filter id="g" x="0" y="0" width="314" height="358" filterUnits="userSpaceOnUse"><feOffset dy="3" input="SourceAlpha"/><feGaussianBlur stdDeviation="3" result="h"/><feFlood flood-color="#3220ce" flood-opacity="0.502"/><feComposite operator="in" in2="h"/><feComposite in="SourceGraphic"/></filter><clipPath id="i"><g class="i" transform="matrix(1, 0, 0, 1, 0, 0)"><rect class="a" width="296" height="338" rx="20" transform="translate(0 0)"/></g></clipPath></defs><g transform="translate(-577.199 -2128.194)"><g class="h" transform="matrix(1, 0, 0, 1, 577.2, 2128.19)"><rect class="c" width="296" height="340" rx="20" transform="translate(9 6)"/></g><g class="d" transform="translate(586.199 2134.194)"><path class="e" d="M568.583,2162.067s-55.51,117.822,74.916,191.682,179.618,29.016,208.952,197.836-356.527,31.654-356.527,31.654L476.066,2190.2Z" transform="translate(-522.238 -2187.103)"/><path class="f" d="M98.98,22.313S50.694,125.924,204.013,225.73,513.05,214.587,566.27,384.535,75.4,409.653,75.4,409.653L3.426,26.163Z" transform="translate(-41.788 -63.643) rotate(16)"/></g><g class="g" transform="translate(586.199 2134.194)"><path class="f" d="M98.98,22.313S50.694,125.924,204.013,225.73,513.05,214.587,566.27,384.535,75.4,409.653,75.4,409.653L3.426,26.163Z" transform="translate(-41.788 -63.643) rotate(16)"/></g></g></svg>