<svg xmlns="http://www.w3.org/2000/svg" xmlns:xlink="http://www.w3.org/1999/xlink" width="314" height="698" viewBox="0 0 314 698"><defs><style>.a{fill:#4487ff;}.b{fill:none;}.c,.e{opacity:0.3;}.c{clip-path:url(#e);}.d{clip-path:url(#f);}.e{mix-blend-mode:multiply;isolation:isolate;fill:url(#g);}.f{filter:url(#c);}.g{filter:url(#a);}</style><filter id="a" x="0" y="0" width="314" height="698" filterUnits="userSpaceOnUse"><feOffset dy="3" input="SourceAlpha"/><feGaussianBlur stdDeviation="3" result="b"/><feFlood flood-opacity="0.161"/><feComposite operator="in" in2="b"/><feComposite in="SourceGraphic"/></filter><filter id="c" x="0" y="0" width="314" height="698" filterUnits="userSpaceOnUse"><feOffset dy="3" input="SourceAlpha"/><feGaussianBlur stdDeviation="3" result="d"/><feFlood flood-opacity="0.161"/><feComposite operator="in" in2="d"/><feComposite in="SourceGraphic"/></filter><clipPath id="e"><g class="g" transform="matrix(1, 0, 0, 1, 0, 0)"><rect class="a" width="296" height="680" rx="20" transform="translate(0 -0.44)"/></g></clipPath><clipPath id="f"><rect class="b" width="362" height="906"/></clipPath><linearGradient id="g" y1="0.5" x2="0.79" y2="0.535" gradientUnits="objectBoundingBox"><stop offset="0" stop-color="#2970f1"/><stop offset="1" stop-color="#153879" stop-opacity="0"/></linearGradient></defs><g transform="translate(9 6.442)"><g class="f" transform="matrix(1, 0, 0, 1, -9, -6.44)"><rect class="a" width="296" height="680" rx="20" transform="translate(9 6)"/></g><g class="c"><g transform="translate(-21 -123.919)"><g class="d" transform="translate(0 0.477)"><g transform="translate(-732 -3973)"><circle class="e" cx="308" cy="308" r="308" transform="translate(732 3973)"/></g><g transform="translate(-522 -3973)"><circle class="e" cx="308" cy="308" r="308" transform="translate(732 3973)"/></g><g transform="translate(-732 -3337)"><circle class="e" cx="308" cy="308" r="308" transform="translate(732 3973)"/></g><g transform="translate(-522 -3337)"><circle class="e" cx="308" cy="308" r="308" transform="translate(732 3973)"/></g></g></g></g></g></svg>