<svg xmlns="http://www.w3.org/2000/svg" xmlns:xlink="http://www.w3.org/1999/xlink" width="1547.698" height="1078.511" viewBox="0 0 1547.698 1078.511"><defs><style>.a{fill:url(#a);}.b{opacity:0.4;fill:url(#b);}.c{fill:#4487ff;}.d{opacity:0.2;clip-path:url(#c);}.d,.f,.g{mix-blend-mode:multiply;isolation:isolate;}.e{stroke:#707070;fill:url(#d);}.f{opacity:0.15;clip-path:url(#e);}.g{fill:url(#f);}</style><linearGradient id="a" x1="0.671" y1="0.047" x2="0.475" y2="1.194" gradientUnits="objectBoundingBox"><stop offset="0" stop-color="#4487ff"/><stop offset="1" stop-color="#224480"/></linearGradient><linearGradient id="b" x1="0.577" y1="0.526" x2="0.385" y2="0.654" gradientUnits="objectBoundingBox"><stop offset="0" stop-color="#3060b5"/><stop offset="1" stop-color="#224480"/></linearGradient><clipPath id="c"><path class="a" d="M10009.8,1457.472s113.188-209.505,416.489-147.791,401.105-40.6,442.132-126.678,137.73-303.7,268.135-256.6,190.48,462.861,190.48,462.861-5.862,206.257-105.5,183.52-612.646-242.19-902.758,5.481-121.8,226.558-333.524,49.534S10009.8,1457.472,10009.8,1457.472Z" transform="translate(-9897.12 -919.804)"/></clipPath><linearGradient id="d" x1="0.5" x2="0.5" y2="1" gradientUnits="objectBoundingBox"><stop offset="0" stop-color="#3060b5"/><stop offset="1" stop-color="#18305b"/></linearGradient><clipPath id="e"><path class="b" d="M10009.8,1457.472s113.188-209.505,416.489-147.791,401.105-40.6,442.132-126.678,137.73-303.7,268.135-256.6,190.48,462.861,190.48,462.861-5.862,206.257-105.5,183.52-612.646-242.19-902.758,5.481-121.8,226.558-333.524,49.534S10009.8,1457.472,10009.8,1457.472Z" transform="translate(-9897.12 -919.804)"/></clipPath><linearGradient id="f" x1="0.5" y1="0" x2="0.5" y2="1" xlink:href="#a"/></defs><g transform="translate(856.667 -751.22) rotate(9)"><path class="c" d="M10009.8,1457.472s113.188-209.505,416.489-147.791,401.105-40.6,442.132-126.678,137.73-303.7,268.135-256.6,190.48,462.861,190.48,462.861-28.813,232.985-128.448,210.248-527.941-224.524-818.056,23.147-183.55,182.165-395.275,5.141S10009.8,1457.472,10009.8,1457.472Z" transform="translate(-10492 -65)"/><g class="d" transform="translate(-594.88 854.804)"><path class="e" d="M11160.943,883.03s-61.828,36.911-97.348,222.695-112.666,237.152-344.662,215.005-388.506-100.89-538.357,33.22-32.746,400.174-32.746,400.174l1207.7,75.052-14.43-540.128Z" transform="translate(-10009.427 -868.705)"/></g><g class="f" transform="translate(-594.88 854.804)"><path class="g" d="M10220.885,1946.371s267.516-216.543,660.463-157.486,448.447,265.758,448.447,265.758L10197.576,2182.6Z" transform="translate(-10035.938 -1293.244)"/></g></g></svg>