<svg xmlns="http://www.w3.org/2000/svg" xmlns:xlink="http://www.w3.org/1999/xlink" width="58" height="58" viewBox="0 0 58 58"><defs><style>.a{fill:#fff;}.b{clip-path:url(#c);}.c{fill:#b1bbcd;}.d{filter:url(#a);}</style><filter id="a" x="0" y="0" width="58" height="58" filterUnits="userSpaceOnUse"><feOffset dy="3" input="SourceAlpha"/><feGaussianBlur stdDeviation="3" result="b"/><feFlood flood-opacity="0.161"/><feComposite operator="in" in2="b"/><feComposite in="SourceGraphic"/></filter><clipPath id="c"><circle class="a" cx="20" cy="20" r="20" transform="translate(1588 5025)"/></clipPath></defs><g transform="translate(-1579 -5019)"><g class="d" transform="matrix(1, 0, 0, 1, 1579, 5019)"><circle class="a" cx="20" cy="20" r="20" transform="translate(9 6)"/></g><g class="b"><g transform="translate(1595.8 5032.8)"><path class="c" d="M4.75,24h14.5A4.756,4.756,0,0,0,24,19.25V4.75A4.756,4.756,0,0,0,19.25,0H4.75A4.756,4.756,0,0,0,0,4.75v14.5A4.756,4.756,0,0,0,4.75,24ZM1.5,4.75A3.254,3.254,0,0,1,4.75,1.5h14.5A3.254,3.254,0,0,1,22.5,4.75v14.5a3.254,3.254,0,0,1-3.25,3.25H4.75A3.254,3.254,0,0,1,1.5,19.25Z"/><path class="c" d="M15.326,20.869a5.543,5.543,0,1,0-5.543-5.543A5.549,5.549,0,0,0,15.326,20.869Zm0-9.729a4.187,4.187,0,1,1-4.187,4.187A4.191,4.191,0,0,1,15.326,11.14Z" transform="translate(-3.326 -3.326)"/><path class="c" d="M29.617,10.32a1.893,1.893,0,1,0-1.9-1.893,1.856,1.856,0,0,0,1.9,1.893Zm.195-2.075c.348.307-.446.68-.446.183C29.367,8.131,29.77,8.208,29.812,8.245Z" transform="translate(-11.367 -2.679)"/></g></g></g></svg>