<svg xmlns="http://www.w3.org/2000/svg" width="24" height="24" viewBox="0 0 24 24"><defs><style>.a{fill:#b1bbcd;}</style></defs><path class="a" d="M4.75,24h14.5A4.756,4.756,0,0,0,24,19.25V4.75A4.756,4.756,0,0,0,19.25,0H4.75A4.756,4.756,0,0,0,0,4.75v14.5A4.756,4.756,0,0,0,4.75,24ZM1.5,4.75A3.254,3.254,0,0,1,4.75,1.5h14.5A3.254,3.254,0,0,1,22.5,4.75v14.5a3.254,3.254,0,0,1-3.25,3.25H4.75A3.254,3.254,0,0,1,1.5,19.25Z"/><path class="a" d="M15.326,20.869a5.543,5.543,0,1,0-5.543-5.543A5.549,5.549,0,0,0,15.326,20.869Zm0-9.729a4.187,4.187,0,1,1-4.187,4.187A4.191,4.191,0,0,1,15.326,11.14Z" transform="translate(-3.326 -3.326)"/><path class="a" d="M29.617,10.32a1.893,1.893,0,1,0-1.9-1.893,1.856,1.856,0,0,0,1.9,1.893Zm.195-2.075c.348.307-.446.68-.446.183C29.367,8.131,29.77,8.208,29.812,8.245Z" transform="translate(-11.367 -2.679)"/></svg>