<svg xmlns="http://www.w3.org/2000/svg" xmlns:xlink="http://www.w3.org/1999/xlink" width="570" height="344" viewBox="0 0 570 344"><defs><style>.a,.b{fill:url(#a);}.b{filter:url(#e);}.c{fill:#fd6845;}.d{opacity:0.1;}.d,.g{mix-blend-mode:multiply;isolation:isolate;clip-path:url(#i);}.e,.f{fill:#40067e;}.f{opacity:0.3;}.g{opacity:0.15;}.h{filter:url(#g);}.i{filter:url(#b);}</style><linearGradient id="a" x1="0.765" y1="0.054" x2="0.291" y2="1.1" gradientUnits="objectBoundingBox"><stop offset="0" stop-color="#e3a5ff"/><stop offset="1" stop-color="#7569de"/></linearGradient><filter id="b" x="0" y="0" width="570" height="344" filterUnits="userSpaceOnUse"><feOffset dy="3" input="SourceAlpha"/><feGaussianBlur stdDeviation="3" result="c"/><feFlood flood-color="#3220ce" flood-opacity="0.502"/><feComposite operator="in" in2="c"/><feComposite in="SourceGraphic"/></filter><filter id="e" x="0" y="0" width="570" height="344" filterUnits="userSpaceOnUse"><feOffset dy="3" input="SourceAlpha"/><feGaussianBlur stdDeviation="3" result="f"/><feFlood flood-color="#3220ce" flood-opacity="0.502"/><feComposite operator="in" in2="f"/><feComposite in="SourceGraphic"/></filter><filter id="g" x="0" y="0" width="570" height="344" filterUnits="userSpaceOnUse"><feOffset dy="3" input="SourceAlpha"/><feGaussianBlur stdDeviation="3" result="h"/><feFlood flood-color="#3220ce" flood-opacity="0.502"/><feComposite operator="in" in2="h"/><feComposite in="SourceGraphic"/></filter><clipPath id="i"><g class="i" transform="matrix(1, 0, 0, 1, 0, 0)"><rect class="a" width="552" height="326" rx="20"/></g></clipPath></defs><g transform="translate(-578 -2185)"><g class="h" transform="matrix(1, 0, 0, 1, 578, 2185)"><rect class="c" width="552" height="326" rx="20" transform="translate(9 6)"/></g><g class="d" transform="translate(587 2191)"><path class="e" d="M649.51,2162.067s-104.066,113.373,140.447,184.442,336.735,27.92,391.729,190.365-668.393,30.458-668.393,30.458l-37.227-378.192Z" transform="translate(-564.057 -2185.016)"/><path class="f" d="M173.444,0S61.218,118.556,313.891,184.442s560.631-86.212,615.625,76.233S37.227,405.266,37.227,405.266L0,27.074Z" transform="translate(-79.656 -61.015) rotate(16)"/></g><g class="g" transform="translate(587 2191)"><path class="f" d="M173.444,0S61.218,118.556,313.891,184.442s560.631-86.212,615.625,76.233S37.227,405.266,37.227,405.266L0,27.074Z" transform="translate(-79.656 -61.015) rotate(16)"/></g></g></svg>